# File created by Blade
# Date/Time:  Tue Jan 27 18:50:13 2015
#---------------------------------------------------------
:version 1.10
:name HOM
:units
  mass 1.0
  length 1.000000
  angle deg
:documentation
     Acclaim Skeleton File
:root
   axis xyz
   order TX TY TZ RX RY RZ
   position 0.000000 0.000000 0.000000
   orientation 0 0 0
:bonedata
   begin
      id 1
      name Spine_dum
      direction 0.000000 1.000000 0.000000
      length 5.195262
      axis 0.0 0.0 0.0 xyz
   end
   begin
      id 2
      name LeftUpLeg_dum
      direction 1.000000 0.000000 0.000000
      length 3.351363
      axis 0.0 0.0 0.0 xyz
   end
   begin
      id 3
      name RightUpLeg_dum
      direction -1.000000 0.000000 0.000000
      length 3.351363
      axis 0.0 0.0 0.0 xyz
   end
   begin
      id 4
      name Spine
      direction 0.000000 1.000000 0.000000
      length 0.000000
      axis 0.0 0.0 0.0 xyz
      dof rx ry rz
   end
   begin
      id 5
      name Spine_dum1
      direction 0.000000 1.000000 0.000000
      length 15.653875
      axis 0.0 0.0 0.0 xyz
   end
   begin
      id 6
      name Spine_dum2
      direction 0.000000 1.000000 0.000000
      length 10.329768
      axis 0.0 0.0 0.0 xyz
   end
   begin
      id 7
      name Spine_dum3
      direction 0.000000 1.000000 0.000000
      length 10.329768
      axis 0.0 0.0 0.0 xyz
   end
   begin
      id 8
      name Head
      direction 0.000000 1.000000 0.000000
      length 4.527550
      axis 0.0 0.0 0.0 xyz
      dof rx ry rz
   end
   begin
      id 9
      name LeftShoulder
      direction 1.000000 0.000000 0.000000
      length 6.996006
      axis 0.0 0.0 -90.0 xyz
      dof rx ry rz
   end
   begin
      id 10
      name LeftArm
      direction 1.000000 0.000000 0.000000
      length 10.209302
      axis 0.0 0.0 -90.0 xyz
      dof rx ry rz
   end
   begin
      id 11
      name LeftForeArm
      direction 1.000000 0.000000 0.000000
      length 8.563163
      axis 0.0 0.0 -90.0 xyz
      dof ry rz rx
   end
   begin
      id 12
      name LeftHand
      direction 0.000000 0.000000 0.000000
      length 0.000000
      axis 0.0 0.0 -90.0 xyz
      dof rx ry rz
   end
   begin
      id 13
      name LeftHand_dum1
      direction 0.000000 0.000000 0.000000
      length 0.000000
      axis 0.0 0.0 -90.0 xyz
   end
   begin
      id 14
      name LeftHand_dum2
      direction 1.000000 0.000000 0.000000
      length 3.937000
      axis 0.0 0.0 -90.0 xyz
   end
   begin
      id 15
      name LeftHandThumb1
      direction 0.000000 0.000000 1.000000
      length 3.937000
      axis 0.0 0.0 -90.0 xyz
      dof rx rz ry
   end
   begin
      id 16
      name RightShoulder
      direction -1.000000 0.000000 0.000000
      length 6.996006
      axis 0.0 0.0 90.0 xyz
      dof rx ry rz
   end
   begin
      id 17
      name RightArm
      direction -1.000000 0.000000 0.000000
      length 10.209302
      axis 0.0 0.0 90.0 xyz
      dof rx ry rz
   end
   begin
      id 18
      name RightForeArm
      direction -1.000000 0.000000 0.000000
      length 8.563163
      axis 0.0 0.0 90.0 xyz
      dof ry rz rx
   end
   begin
      id 19
      name RightHand
      direction 0.000000 0.000000 0.000000
      length 0.000000
      axis 0.0 0.0 90.0 xyz
      dof rx ry rz
   end
   begin
      id 20
      name RightHand_dum1
      direction 0.000000 0.000000 0.000000
      length 0.000000
      axis 0.0 0.0 90.0 xyz
   end
   begin
      id 21
      name RightHand_dum2
      direction -1.000000 0.000000 0.000000
      length 3.937000
      axis 0.0 0.0 90.0 xyz
   end
   begin
      id 22
      name RightHandThumb1
      direction 0.000000 0.000000 1.000000
      length 3.937000
      axis 0.0 0.0 90.0 xyz
      dof rx rz ry
   end
   begin
      id 23
      name LeftUpLeg
      direction 0.000000 -1.000000 0.000000
      length 16.346831
      axis 0.0 0.0 0.0 xyz
      dof rx ry rz
   end
   begin
      id 24
      name LeftLeg
      direction 0.000000 -1.000000 0.000000
      length 13.959795
      axis 0.0 0.0 0.0 xyz
      dof rx ry rz
   end
   begin
      id 25
      name LeftFoot
      direction 0.000000 -0.258819 0.965926
      length 5.165550
      axis 15.0 0.0 0.0 xyz
      dof rx ry rz
   end
   begin
      id 26
      name LeftToeBase
      direction 0.000000 0.000000 1.000000
      length 2.952750
      axis 0.0 0.0 0.0 xyz
      dof rx ry rz
   end
   begin
      id 27
      name RightUpLeg
      direction 0.000000 -1.000000 0.000000
      length 16.346831
      axis 0.0 0.0 0.0 xyz
      dof rx ry rz
   end
   begin
      id 28
      name RightLeg
      direction 0.000000 -1.000000 0.000000
      length 13.959795
      axis 0.0 0.0 0.0 xyz
      dof rx ry rz
   end
   begin
      id 29
      name RightFoot
      direction 0.000000 -0.258819 0.965926
      length 5.165550
      axis 15.0 0.0 0.0 xyz
      dof rx ry rz
   end
   begin
      id 30
      name RightToeBase
      direction 0.000000 0.000000 1.000000
      length 2.952750
      axis 0.0 0.0 0.0 xyz
      dof rx ry rz
   end
:hierarchy
   begin
      root Spine_dum LeftUpLeg_dum RightUpLeg_dum
      Spine_dum Spine
      LeftUpLeg_dum LeftUpLeg
      RightUpLeg_dum RightUpLeg
      Spine Spine_dum1 Spine_dum2 Spine_dum3
      Spine_dum1 Head
      Spine_dum2 LeftShoulder
      Spine_dum3 RightShoulder
      LeftShoulder LeftArm
      LeftArm LeftForeArm
      LeftForeArm LeftHand
      LeftHand LeftHand_dum1 LeftHand_dum2
      LeftHand_dum1 LeftHandThumb1
      RightShoulder RightArm
      RightArm RightForeArm
      RightForeArm RightHand
      RightHand RightHand_dum1 RightHand_dum2
      RightHand_dum1 RightHandThumb1
      LeftUpLeg LeftLeg
      LeftLeg LeftFoot
      LeftFoot LeftToeBase
      RightUpLeg RightLeg
      RightLeg RightFoot
      RightFoot RightToeBase
   end

# File created by Blade
# Date/Time:  Tue Jan 27 18:50:05 2015
# Frame Rate: 120.000 fps
#------------------------------------------------------
:FULLY-SPECIFIED
:DEGREES
1002
root -1.171355 31.845193 -6.711246 -2.072492 12.127360 -9.375534
Spine 6.714714 -7.390019 1.138066
Head 5.697125 -6.006627 9.314113
LeftShoulder -15.009652 16.567636 14.859827
LeftArm 10.854321 -30.596219 -73.632734
LeftForeArm -5.976760 -0.000000 125.424593
LeftHand -15.325835 0.000000 21.645733
LeftHandThumb1 -26.253704 0.000000 33.147579
RightShoulder -12.964419 -3.732448 -6.635855
RightArm 13.078952 -33.708825 72.660060
RightForeArm -32.156136 -0.000000 27.725577
RightHand -14.721247 -0.000000 9.718144
RightHandThumb1 -24.326973 -0.000000 -32.862282
LeftUpLeg -5.742128 6.665188 -1.519098
LeftLeg 20.629069 -0.000000 -0.000000
LeftFoot -29.934394 20.726831 -21.253743
LeftToeBase 9.000030 -0.000000 -0.000000
RightUpLeg -79.778362 -10.298917 8.045841
RightLeg 96.856542 -0.000000 -0.000000
RightFoot -5.179936 -11.037478 16.124436
RightToeBase 8.156125 -0.000000 -0.000000
1003
root -1.181402 31.849204 -6.688361 -2.150942 12.242444 -9.475933
Spine 6.745650 -7.374717 1.230349
Head 5.714591 -6.075633 9.327729
LeftShoulder -15.044985 16.567442 14.900149
LeftArm 11.045924 -30.328370 -73.599373
LeftForeArm -5.954936 -0.000000 125.266387
LeftHand -15.328472 -0.000000 21.716993
LeftHandThumb1 -26.253704 0.000000 33.147579
RightShoulder -12.964511 -3.776220 -6.577978
RightArm 13.202253 -33.865275 72.449678
RightForeArm -32.026123 -0.000000 27.674603
RightHand -14.470341 -0.000000 10.106738
RightHandThumb1 -24.326973 -0.000000 -32.862282
LeftUpLeg -5.693643 6.522895 -1.396528
LeftLeg 20.701950 -0.000000 -0.000000
LeftFoot -29.903847 20.799931 -21.128227
LeftToeBase 8.844377 -0.000000 -0.000000
RightUpLeg -79.743185 -10.268221 7.916542
RightLeg 99.136612 -0.000000 -0.000000
RightFoot -3.862039 -10.441281 15.786587
RightToeBase 8.159380 -0.000000 -0.000000
1004
root -1.191679 31.852530 -6.669357 -2.200140 12.357337 -9.584704
Spine 6.745815 -7.331573 1.349271
Head 5.736154 -6.174247 9.328989
LeftShoulder -15.042952 16.465251 14.974122
LeftArm 11.141419 -30.050149 -73.521375
LeftForeArm -5.991566 -0.000000 125.077433
LeftHand -15.298490 0.000000 21.686847
LeftHandThumb1 -26.253704 0.000000 33.147579
RightShoulder -12.973507 -3.835258 -6.518255
RightArm 13.337984 -33.962548 72.250808
RightForeArm -32.390753 0.000000 27.623909
RightHand -14.049853 0.000000 11.419198
RightHandThumb1 -24.326973 -0.000000 -32.862282
LeftUpLeg -5.700596 6.333992 -1.285723
LeftLeg 20.816707 -0.000000 -0.000000
LeftFoot -29.935990 20.887543 -21.098800
LeftToeBase 8.737055 -0.000000 -0.000000
RightUpLeg -79.734974 -10.208112 7.835164
RightLeg 101.569850 -0.000000 -0.000000
RightFoot -2.645348 -10.093185 14.884559
RightToeBase 8.734961 -0.000000 -0.000000
1005
root -1.198957 31.855440 -6.645681 -2.275793 12.445085 -9.697395
Spine 6.761262 -7.266631 1.482991
Head 5.771433 -6.271077 9.310917
LeftShoulder -15.047047 16.386599 15.032560
LeftArm 11.253363 -29.775804 -73.447469
LeftForeArm -6.045709 -0.000000 124.882118
LeftHand -15.258643 0.000000 21.595780
LeftHandThumb1 -26.253704 0.000000 33.147579
RightShoulder -12.969531 -3.816216 -6.476541
RightArm 13.429526 -34.119505 72.043127
RightForeArm -32.517040 0.000000 27.481084
RightHand -13.944079 -0.000000 11.649951
RightHandThumb1 -24.326973 -0.000000 -32.862282
LeftUpLeg -5.679963 6.124570 -1.165093
LeftLeg 20.936104 -0.000000 -0.000000
LeftFoot -29.937213 21.041128 -20.989883
LeftToeBase 8.528991 -0.000000 -0.000000
RightUpLeg -79.694608 -10.158138 7.819446
RightLeg 104.090489 -0.000000 -0.000000
RightFoot -1.418173 -9.867541 14.321914
RightToeBase 8.892022 -0.000000 -0.000000
1006
root -1.208633 31.858546 -6.624254 -2.325972 12.540293 -9.838562
Spine 6.740402 -7.205105 1.652284
Head 5.809392 -6.376582 9.293038
LeftShoulder -15.055578 16.320390 15.077937
LeftArm 11.398284 -29.507223 -73.372081
LeftForeArm -6.100543 -0.000000 124.685978
LeftHand -15.289429 0.000000 21.530281
LeftHandThumb1 -26.253704 0.000000 33.147579
RightShoulder -12.940875 -3.804724 -6.472397
RightArm 13.490460 -34.242661 71.908728
RightForeArm -32.448434 -0.000000 27.335644
RightHand -13.755513 -0.000000 12.127778
RightHandThumb1 -24.326973 -0.000000 -32.862282
LeftUpLeg -5.689794 5.873690 -1.027666
LeftLeg 21.031505 -0.000000 -0.000000
LeftFoot -29.976053 21.278531 -20.917046
LeftToeBase 8.139769 -0.000000 -0.000000
RightUpLeg -79.630836 -10.094059 7.755559
RightLeg 106.704389 -0.000000 -0.000000
RightFoot -0.242677 -9.356926 13.737313
RightToeBase 8.811376 -0.000000 -0.000000
1007
root -1.223956 31.862999 -6.607993 -2.347592 12.628642 -10.031514
Spine 6.687630 -7.173560 1.871662
Head 5.846253 -6.439063 9.281594
LeftShoulder -15.082071 16.232581 15.140374
LeftArm 11.510019 -29.252440 -73.316469
LeftForeArm -6.103079 -0.000000 124.471893
LeftHand -15.324358 -0.000000 21.539446
LeftHandThumb1 -26.253704 0.000000 33.147579
RightShoulder -12.882203 -3.714195 -6.460454
RightArm 13.628781 -34.489104 71.659207
RightForeArm -31.831573 0.000000 27.023784
RightHand -14.310279 -0.000000 10.832986
RightHandThumb1 -24.326973 -0.000000 -32.862282
LeftUpLeg -5.783852 5.624612 -0.836753
LeftLeg 21.209764 -0.000000 -0.000000
LeftFoot -30.034273 21.488220 -20.792735
LeftToeBase 7.941529 -0.000000 -0.000000
RightUpLeg -79.583496 -9.987850 7.874750
RightLeg 109.335940 -0.000000 -0.000000
RightFoot 0.706303 -9.241279 13.284262
RightToeBase 9.161203 -0.000000 -0.000000
1008
root -1.234671 31.866527 -6.590216 -2.365516 12.712292 -10.220488
Spine 6.614537 -7.100461 2.110464
Head 5.897562 -6.556425 9.254646
LeftShoulder -15.063883 16.178567 15.194357
LeftArm 11.655161 -29.036269 -73.297673
LeftForeArm -6.126986 -0.000000 124.259875
LeftHand -15.360139 -0.000000 21.423431
LeftHandThumb1 -26.253704 0.000000 33.147579
RightShoulder -12.850556 -3.728581 -6.471261
RightArm 13.809545 -34.745521 71.425221
RightForeArm -32.127030 -0.000000 26.803471
RightHand -13.758815 -0.000000 12.246422
RightHandThumb1 -24.326973 -0.000000 -32.862282
LeftUpLeg -5.870040 5.318121 -0.662722
LeftLeg 21.387364 -0.000000 -0.000000
LeftFoot -30.079040 21.766976 -20.596831
LeftToeBase 7.826174 -0.000000 -0.000000
RightUpLeg -79.502666 -9.903342 7.960963
RightLeg 112.036050 -0.000000 -0.000000
RightFoot 1.525858 -8.910132 13.071550
RightToeBase 9.862852 -0.000000 -0.000000
1009
root -1.247110 31.870358 -6.574560 -2.368211 12.771793 -10.439940
Spine 6.523154 -7.003848 2.395641
Head 5.929607 -6.691265 9.200440
LeftShoulder -15.046529 16.136631 15.228219
LeftArm 11.815054 -28.847372 -73.278779
LeftForeArm -6.194510 -0.000000 124.044416
LeftHand -15.404668 -0.000000 21.369861
LeftHandThumb1 -26.253704 0.000000 33.147579
RightShoulder -12.799106 -3.676475 -6.510035
RightArm 13.955104 -34.916962 71.241854
RightForeArm -32.090161 -0.000000 26.485432
RightHand -13.503600 -0.000000 12.680420
RightHandThumb1 -24.326973 -0.000000 -32.862282
LeftUpLeg -5.998495 5.038608 -0.462506
LeftLeg 21.575741 -0.000000 -0.000000
LeftFoot -30.256481 22.021604 -20.611445
LeftToeBase 7.934548 -0.000000 -0.000000
RightUpLeg -79.415521 -9.801017 8.125498
RightLeg 114.723643 -0.000000 -0.000000
RightFoot 2.549120 -8.794675 12.467873
RightToeBase 9.811292 -0.000000 -0.000000
1010
root -1.257110 31.874086 -6.560625 -2.356239 12.824653 -10.672990
Spine 6.407563 -6.904362 2.720150
Head 5.963413 -6.823256 9.102629
LeftShoulder -15.027318 16.090489 15.227209
LeftArm 11.943373 -28.661465 -73.218160
LeftForeArm -6.387235 -0.000000 123.829919
LeftHand -15.346868 -0.000000 21.422828
LeftHandThumb1 -26.253704 0.000000 33.147579
RightShoulder -12.714640 -3.653528 -6.586315
RightArm 14.094846 -35.125915 71.061516
RightForeArm -32.015828 -0.000000 26.206772
RightHand -13.701822 0.000000 12.656953
RightHandThumb1 -24.326973 -0.000000 -32.862282
LeftUpLeg -6.150060 4.784160 -0.256609
LeftLeg 21.781500 -0.000000 -0.000000
LeftFoot -30.358013 22.300511 -20.466876
LeftToeBase 7.963066 -0.000000 -0.000000
RightUpLeg -79.296423 -9.691813 8.301177
RightLeg 117.415860 -0.000000 -0.000000
RightFoot 3.515457 -8.718478 11.803078
RightToeBase 9.796907 -0.000000 -0.000000
1011
root -1.264199 31.877564 -6.548263 -2.327216 12.852800 -10.901492
Spine 6.276153 -6.786092 3.053338
Head 5.987194 -6.934216 8.998786
LeftShoulder -15.027819 16.042049 15.201186
LeftArm 12.061607 -28.490723 -73.142047
LeftForeArm -6.453540 -0.000000 123.638159
LeftHand -15.442924 -0.000000 21.396354
LeftHandThumb1 -26.253704 0.000000 33.147579
RightShoulder -12.642399 -3.631710 -6.658777
RightArm 14.317555 -35.338985 70.824987
RightForeArm -31.923141 -0.000000 25.836615
RightHand -13.607949 0.000000 12.637361
RightHandThumb1 -24.326973 -0.000000 -32.862282
LeftUpLeg -6.308964 4.515303 -0.056880
LeftLeg 21.979452 -0.000000 -0.000000
LeftFoot -30.512745 22.511934 -20.444764
LeftToeBase 8.107110 -0.000000 -0.000000
RightUpLeg -79.160595 -9.578811 8.512644
RightLeg 120.067493 -0.000000 -0.000000
RightFoot 4.694545 -8.629598 10.677396
RightToeBase 9.050426 -0.000000 -0.000000
1012
root -1.273778 31.881577 -6.535579 -2.302471 12.853124 -11.150484
Spine 6.140957 -6.654685 3.400763
Head 6.023218 -7.059016 8.910359
LeftShoulder -15.030536 16.028089 15.159095
LeftArm 12.176356 -28.334688 -73.056429
LeftForeArm -6.581011 -0.000000 123.464302
LeftHand -15.455255 -0.000000 21.400348
LeftHandThumb1 -26.253704 0.000000 33.147579
RightShoulder -12.532063 -3.602682 -6.728676
RightArm 14.498451 -35.394816 70.663343
RightForeArm -31.982425 -0.000000 25.485604
RightHand -13.852825 0.000000 12.681536
RightHandThumb1 -24.326973 -0.000000 -32.862282
LeftUpLeg -6.474716 4.285497 0.169916
LeftLeg 22.187441 -0.000000 -0.000000
LeftFoot -30.669777 22.768347 -20.415026
LeftToeBase 8.076054 -0.000000 -0.000000
RightUpLeg -78.968977 -9.422480 8.717529
RightLeg 122.718714 -0.000000 -0.000000
RightFoot 5.747315 -8.569087 9.815512
RightToeBase 9.269152 -0.000000 -0.000000
